<svg width="46" height="46" viewBox="0 0 46 46" fill="none" xmlns="http://www.w3.org/2000/svg">
<circle cx="23" cy="16.3226" r="8.16129" fill="#D9D9D9"/>
<path d="M22.134 19.3065C22.5189 18.6398 23.4811 18.6398 23.866 19.3065L33.0571 35.2258C33.442 35.8925 32.9608 36.7258 32.191 36.7258H13.809C13.0392 36.7258 12.558 35.8925 12.9429 35.2258L22.134 19.3065Z" fill="#D9D9D9"/>
<path d="M46 23C46 35.7025 35.7025 46 23 46C10.2975 46 0 35.7025 0 23C0 10.2975 10.2975 0 23 0C35.7025 0 46 10.2975 46 23ZM2.872 23C2.872 34.1164 11.8836 43.128 23 43.128C34.1164 43.128 43.128 34.1164 43.128 23C43.128 11.8836 34.1164 2.872 23 2.872C11.8836 2.872 2.872 11.8836 2.872 23Z" fill="#D9D9D9"/>
</svg>
