<svg width="129" height="24" viewBox="0 0 129 24" fill="none" xmlns="http://www.w3.org/2000/svg">
<path d="M8.1 19.2C6.63333 19.2 5.37333 18.9067 4.32 18.32C3.28 17.72 2.48 16.88 1.92 15.8C1.36 14.7067 1.08 13.42 1.08 11.94C1.08 10.8333 1.24 9.84 1.56 8.96C1.88 8.06667 2.34 7.30667 2.94 6.68C3.54 6.04 4.27333 5.55333 5.14 5.22C6.02 4.87333 7.00667 4.7 8.1 4.7C8.83333 4.7 9.55333 4.79333 10.26 4.98C10.9667 5.16667 11.5867 5.43333 12.12 5.78C12.4 5.95333 12.5867 6.16667 12.68 6.42C12.7733 6.66 12.7933 6.9 12.74 7.14C12.6867 7.36667 12.5733 7.56 12.4 7.72C12.24 7.88 12.0333 7.97333 11.78 8C11.54 8.01333 11.2733 7.92667 10.98 7.74C10.5667 7.47333 10.12 7.28 9.64 7.16C9.16 7.04 8.67333 6.98 8.18 6.98C7.23333 6.98 6.43333 7.17333 5.78 7.56C5.12667 7.94667 4.63333 8.50667 4.3 9.24C3.96667 9.97333 3.8 10.8733 3.8 11.94C3.8 12.9933 3.96667 13.8933 4.3 14.64C4.63333 15.3867 5.12667 15.9533 5.78 16.34C6.43333 16.7267 7.23333 16.92 8.18 16.92C8.68667 16.92 9.18667 16.86 9.68 16.74C10.1733 16.6067 10.64 16.4067 11.08 16.14C11.3733 15.9667 11.6333 15.8933 11.86 15.92C12.1 15.9333 12.3 16.0133 12.46 16.16C12.62 16.3067 12.7267 16.4933 12.78 16.72C12.8333 16.9333 12.82 17.16 12.74 17.4C12.66 17.6267 12.5 17.8267 12.26 18C11.7267 18.3867 11.0867 18.6867 10.34 18.9C9.60667 19.1 8.86 19.2 8.1 19.2ZM17.7622 19.2C17.0555 19.2 16.4222 19.0667 15.8622 18.8C15.3155 18.52 14.8822 18.1467 14.5622 17.68C14.2555 17.2133 14.1022 16.6867 14.1022 16.1C14.1022 15.38 14.2889 14.8133 14.6622 14.4C15.0355 13.9733 15.6422 13.6667 16.4822 13.48C17.3222 13.2933 18.4489 13.2 19.8622 13.2H20.8622V14.64H19.8822C19.0555 14.64 18.3955 14.68 17.9022 14.76C17.4089 14.84 17.0555 14.98 16.8422 15.18C16.6422 15.3667 16.5422 15.6333 16.5422 15.98C16.5422 16.42 16.6955 16.78 17.0022 17.06C17.3089 17.34 17.7355 17.48 18.2822 17.48C18.7222 17.48 19.1089 17.38 19.4422 17.18C19.7889 16.9667 20.0622 16.68 20.2622 16.32C20.4622 15.96 20.5622 15.5467 20.5622 15.08V12.78C20.5622 12.1133 20.4155 11.6333 20.1222 11.34C19.8289 11.0467 19.3355 10.9 18.6422 10.9C18.2555 10.9 17.8355 10.9467 17.3822 11.04C16.9422 11.1333 16.4755 11.2933 15.9822 11.52C15.7289 11.64 15.5022 11.6733 15.3022 11.62C15.1155 11.5667 14.9689 11.46 14.8622 11.3C14.7555 11.1267 14.7022 10.94 14.7022 10.74C14.7022 10.54 14.7555 10.3467 14.8622 10.16C14.9689 9.96 15.1489 9.81333 15.4022 9.72C16.0155 9.46667 16.6022 9.28667 17.1622 9.18C17.7355 9.07333 18.2555 9.02 18.7222 9.02C19.6822 9.02 20.4689 9.16667 21.0822 9.46C21.7089 9.75333 22.1755 10.2 22.4822 10.8C22.7889 11.3867 22.9422 12.1467 22.9422 13.08V17.88C22.9422 18.2933 22.8422 18.6133 22.6422 18.84C22.4422 19.0533 22.1555 19.16 21.7822 19.16C21.4089 19.16 21.1155 19.0533 20.9022 18.84C20.7022 18.6133 20.6022 18.2933 20.6022 17.88V16.92H20.7622C20.6689 17.3867 20.4822 17.7933 20.2022 18.14C19.9355 18.4733 19.5955 18.7333 19.1822 18.92C18.7689 19.1067 18.2955 19.2 17.7622 19.2ZM26.7597 19.16C26.3464 19.16 26.0264 19.0533 25.7997 18.84C25.5864 18.6133 25.4797 18.2933 25.4797 17.88V10.32C25.4797 9.90667 25.5864 9.59333 25.7997 9.38C26.013 9.16667 26.313 9.06 26.6997 9.06C27.0864 9.06 27.3864 9.16667 27.5997 9.38C27.813 9.59333 27.9197 9.90667 27.9197 10.32V11.58H27.7197C27.9064 10.78 28.273 10.1733 28.8197 9.76C29.3664 9.34667 30.093 9.1 30.9997 9.02C31.2797 8.99333 31.4997 9.06667 31.6597 9.24C31.833 9.4 31.933 9.65333 31.9597 10C31.9864 10.3333 31.9064 10.6067 31.7197 10.82C31.5464 11.02 31.2797 11.14 30.9197 11.18L30.4797 11.22C29.6664 11.3 29.053 11.5533 28.6397 11.98C28.2264 12.3933 28.0197 12.98 28.0197 13.74V17.88C28.0197 18.2933 27.913 18.6133 27.6997 18.84C27.4864 19.0533 27.173 19.16 26.7597 19.16ZM37.9755 19.2C36.8688 19.2 35.9155 18.9933 35.1155 18.58C34.3155 18.1667 33.6955 17.58 33.2555 16.82C32.8288 16.06 32.6155 15.16 32.6155 14.12C32.6155 13.1067 32.8221 12.22 33.2355 11.46C33.6621 10.7 34.2421 10.1067 34.9755 9.68C35.7221 9.24 36.5688 9.02 37.5155 9.02C38.2088 9.02 38.8288 9.13333 39.3755 9.36C39.9355 9.58667 40.4088 9.91333 40.7955 10.34C41.1955 10.7667 41.4955 11.2867 41.6955 11.9C41.9088 12.5 42.0155 13.18 42.0155 13.94C42.0155 14.18 41.9288 14.3667 41.7555 14.5C41.5955 14.62 41.3621 14.68 41.0555 14.68H34.6355V13.24H40.2555L39.9355 13.54C39.9355 12.9267 39.8421 12.4133 39.6555 12C39.4821 11.5867 39.2221 11.2733 38.8755 11.06C38.5421 10.8333 38.1221 10.72 37.6155 10.72C37.0555 10.72 36.5755 10.8533 36.1755 11.12C35.7888 11.3733 35.4888 11.74 35.2755 12.22C35.0755 12.6867 34.9755 13.2467 34.9755 13.9V14.04C34.9755 15.1333 35.2288 15.9533 35.7355 16.5C36.2555 17.0333 37.0155 17.3 38.0155 17.3C38.3621 17.3 38.7488 17.26 39.1755 17.18C39.6155 17.0867 40.0288 16.9333 40.4155 16.72C40.6955 16.56 40.9421 16.4933 41.1555 16.52C41.3688 16.5333 41.5355 16.6067 41.6555 16.74C41.7888 16.8733 41.8688 17.04 41.8955 17.24C41.9221 17.4267 41.8821 17.62 41.7755 17.82C41.6821 18.02 41.5155 18.1933 41.2755 18.34C40.8088 18.6333 40.2688 18.8533 39.6555 19C39.0555 19.1333 38.4955 19.2 37.9755 19.2Z" fill="black" fill-opacity="0.6"/>
<path d="M45.5153 19.16C45.102 19.16 44.782 19.0467 44.5553 18.82C44.342 18.58 44.2353 18.2533 44.2353 17.84V6.2C44.2353 5.77333 44.3486 5.45333 44.5753 5.24C44.802 5.01333 45.122 4.9 45.5353 4.9H50.3553C51.902 4.9 53.0953 5.28667 53.9353 6.06C54.7753 6.83333 55.1953 7.91333 55.1953 9.3C55.1953 10.6867 54.7753 11.7733 53.9353 12.56C53.0953 13.3333 51.902 13.72 50.3553 13.72H46.7953V17.84C46.7953 18.2533 46.6886 18.58 46.4753 18.82C46.262 19.0467 45.942 19.16 45.5153 19.16ZM46.7953 11.7H49.9553C50.862 11.7 51.5486 11.5 52.0153 11.1C52.482 10.6867 52.7153 10.0867 52.7153 9.3C52.7153 8.51333 52.482 7.92 52.0153 7.52C51.5486 7.12 50.862 6.92 49.9553 6.92H46.7953V11.7ZM58.2822 19.16C57.8822 19.16 57.5755 19.0533 57.3622 18.84C57.1489 18.6133 57.0422 18.2933 57.0422 17.88V6C57.0422 5.58667 57.1489 5.27333 57.3622 5.06C57.5755 4.84667 57.8822 4.74 58.2822 4.74C58.6822 4.74 58.9889 4.84667 59.2022 5.06C59.4289 5.27333 59.5422 5.58667 59.5422 6V11.18H59.2622C59.5555 10.4733 60.0089 9.94 60.6222 9.58C61.2489 9.20667 61.9555 9.02 62.7422 9.02C63.5289 9.02 64.1755 9.16667 64.6822 9.46C65.1889 9.75333 65.5689 10.2 65.8222 10.8C66.0755 11.3867 66.2022 12.1333 66.2022 13.04V17.88C66.2022 18.2933 66.0955 18.6133 65.8822 18.84C65.6689 19.0533 65.3622 19.16 64.9622 19.16C64.5622 19.16 64.2489 19.0533 64.0222 18.84C63.8089 18.6133 63.7022 18.2933 63.7022 17.88V13.16C63.7022 12.4 63.5555 11.8467 63.2622 11.5C62.9822 11.1533 62.5422 10.98 61.9422 10.98C61.2089 10.98 60.6222 11.2133 60.1822 11.68C59.7555 12.1333 59.5422 12.74 59.5422 13.5V17.88C59.5422 18.7333 59.1222 19.16 58.2822 19.16ZM71.9614 19.2C71.2547 19.2 70.6214 19.0667 70.0614 18.8C69.5147 18.52 69.0814 18.1467 68.7614 17.68C68.4547 17.2133 68.3014 16.6867 68.3014 16.1C68.3014 15.38 68.4881 14.8133 68.8614 14.4C69.2347 13.9733 69.8414 13.6667 70.6814 13.48C71.5214 13.2933 72.6481 13.2 74.0614 13.2H75.0614V14.64H74.0814C73.2547 14.64 72.5947 14.68 72.1014 14.76C71.6081 14.84 71.2547 14.98 71.0414 15.18C70.8414 15.3667 70.7414 15.6333 70.7414 15.98C70.7414 16.42 70.8947 16.78 71.2014 17.06C71.5081 17.34 71.9347 17.48 72.4814 17.48C72.9214 17.48 73.3081 17.38 73.6414 17.18C73.9881 16.9667 74.2614 16.68 74.4614 16.32C74.6614 15.96 74.7614 15.5467 74.7614 15.08V12.78C74.7614 12.1133 74.6147 11.6333 74.3214 11.34C74.0281 11.0467 73.5347 10.9 72.8414 10.9C72.4547 10.9 72.0347 10.9467 71.5814 11.04C71.1414 11.1333 70.6747 11.2933 70.1814 11.52C69.9281 11.64 69.7014 11.6733 69.5014 11.62C69.3147 11.5667 69.1681 11.46 69.0614 11.3C68.9547 11.1267 68.9014 10.94 68.9014 10.74C68.9014 10.54 68.9547 10.3467 69.0614 10.16C69.1681 9.96 69.3481 9.81333 69.6014 9.72C70.2147 9.46667 70.8014 9.28667 71.3614 9.18C71.9347 9.07333 72.4547 9.02 72.9214 9.02C73.8814 9.02 74.6681 9.16667 75.2814 9.46C75.9081 9.75333 76.3747 10.2 76.6814 10.8C76.9881 11.3867 77.1414 12.1467 77.1414 13.08V17.88C77.1414 18.2933 77.0414 18.6133 76.8414 18.84C76.6414 19.0533 76.3547 19.16 75.9814 19.16C75.6081 19.16 75.3147 19.0533 75.1014 18.84C74.9014 18.6133 74.8014 18.2933 74.8014 17.88V16.92H74.9614C74.8681 17.3867 74.6814 17.7933 74.4014 18.14C74.1347 18.4733 73.7947 18.7333 73.3814 18.92C72.9681 19.1067 72.4947 19.2 71.9614 19.2ZM80.9589 19.16C80.5456 19.16 80.2256 19.0533 79.9989 18.84C79.7856 18.6133 79.6789 18.2933 79.6789 17.88V10.32C79.6789 9.90667 79.7856 9.59333 79.9989 9.38C80.2122 9.16667 80.5122 9.06 80.8989 9.06C81.2856 9.06 81.5856 9.16667 81.7989 9.38C82.0122 9.59333 82.1189 9.90667 82.1189 10.32V11.58H81.9189C82.1056 10.78 82.4722 10.1733 83.0189 9.76C83.5656 9.34667 84.2922 9.1 85.1989 9.02C85.4789 8.99333 85.6989 9.06667 85.8589 9.24C86.0322 9.4 86.1322 9.65333 86.1589 10C86.1856 10.3333 86.1056 10.6067 85.9189 10.82C85.7456 11.02 85.4789 11.14 85.1189 11.18L84.6789 11.22C83.8656 11.3 83.2522 11.5533 82.8389 11.98C82.4256 12.3933 82.2189 12.98 82.2189 13.74V17.88C82.2189 18.2933 82.1122 18.6133 81.8989 18.84C81.6856 19.0533 81.3722 19.16 80.9589 19.16ZM88.7909 19.16C88.3909 19.16 88.0843 19.0533 87.8709 18.84C87.6576 18.6133 87.5509 18.2933 87.5509 17.88V10.32C87.5509 9.90667 87.6576 9.59333 87.8709 9.38C88.0843 9.16667 88.3843 9.06 88.7709 9.06C89.1576 9.06 89.4576 9.16667 89.6709 9.38C89.8843 9.59333 89.9909 9.90667 89.9909 10.32V11.78L89.7709 11.18C90.0376 10.5133 90.4509 9.98667 91.0109 9.6C91.5709 9.21333 92.2376 9.02 93.0109 9.02C93.7976 9.02 94.4443 9.20667 94.9509 9.58C95.4576 9.95333 95.8109 10.5267 96.0109 11.3H95.7309C95.9976 10.5933 96.4376 10.04 97.0509 9.64C97.6643 9.22667 98.3709 9.02 99.1709 9.02C99.9176 9.02 100.531 9.16667 101.011 9.46C101.504 9.75333 101.871 10.2 102.111 10.8C102.351 11.3867 102.471 12.1333 102.471 13.04V17.88C102.471 18.2933 102.358 18.6133 102.131 18.84C101.918 19.0533 101.611 19.16 101.211 19.16C100.811 19.16 100.504 19.0533 100.291 18.84C100.078 18.6133 99.9709 18.2933 99.9709 17.88V13.14C99.9709 12.3933 99.8443 11.8467 99.5909 11.5C99.3509 11.1533 98.9376 10.98 98.3509 10.98C97.6976 10.98 97.1843 11.2133 96.8109 11.68C96.4376 12.1333 96.2509 12.7667 96.2509 13.58V17.88C96.2509 18.2933 96.1443 18.6133 95.9309 18.84C95.7176 19.0533 95.4109 19.16 95.0109 19.16C94.6109 19.16 94.2976 19.0533 94.0709 18.84C93.8576 18.6133 93.7509 18.2933 93.7509 17.88V13.14C93.7509 12.3933 93.6243 11.8467 93.3709 11.5C93.1309 11.1533 92.7243 10.98 92.1509 10.98C91.4976 10.98 90.9843 11.2133 90.6109 11.68C90.2376 12.1333 90.0509 12.7667 90.0509 13.58V17.88C90.0509 18.7333 89.6309 19.16 88.7909 19.16Z" fill="#009688"/>
<path d="M119 11H118V9.99997C118 9.73475 117.895 9.4804 117.707 9.29286C117.52 9.10533 117.265 8.99997 117 8.99997C116.735 8.99997 116.48 9.10533 116.293 9.29286C116.105 9.4804 116 9.73475 116 9.99997V11H115C114.735 11 114.48 11.1053 114.293 11.2929C114.105 11.4804 114 11.7348 114 12C114 12.2652 114.105 12.5195 114.293 12.7071C114.48 12.8946 114.735 13 115 13H116V14C116 14.2652 116.105 14.5195 116.293 14.7071C116.48 14.8946 116.735 15 117 15C117.265 15 117.52 14.8946 117.707 14.7071C117.895 14.5195 118 14.2652 118 14V13H119C119.265 13 119.52 12.8946 119.707 12.7071C119.895 12.5195 120 12.2652 120 12C120 11.7348 119.895 11.4804 119.707 11.2929C119.52 11.1053 119.265 11 119 11ZM125.16 4.99997C124.094 3.94467 122.685 3.30524 121.189 3.19705C119.693 3.08886 118.207 3.51904 117 4.40997C115.728 3.46361 114.144 3.03448 112.568 3.20901C110.992 3.38353 109.54 4.14875 108.506 5.35055C107.471 6.55236 106.931 8.10149 106.993 9.68598C107.055 11.2705 107.715 12.7726 108.84 13.89L114.84 19.94C115.402 20.5018 116.165 20.8173 116.96 20.8173C117.755 20.8173 118.517 20.5018 119.08 19.94L125.08 13.89C125.671 13.3126 126.142 12.6242 126.466 11.8642C126.79 11.1042 126.961 10.2877 126.968 9.4616C126.975 8.63548 126.82 7.81603 126.509 7.05035C126.199 6.28467 125.74 5.58786 125.16 4.99997ZM123.75 12.46L117.75 18.46C117.657 18.5537 117.546 18.6281 117.425 18.6789C117.303 18.7296 117.172 18.7558 117.04 18.7558C116.908 18.7558 116.777 18.7296 116.655 18.6789C116.534 18.6281 116.423 18.5537 116.33 18.46L110.33 12.46C109.546 11.6583 109.107 10.5814 109.107 9.45997C109.107 8.3385 109.546 7.26162 110.33 6.45997C111.129 5.67096 112.207 5.22854 113.33 5.22854C114.453 5.22854 115.531 5.67096 116.33 6.45997C116.423 6.5537 116.534 6.62809 116.655 6.67886C116.777 6.72963 116.908 6.75577 117.04 6.75577C117.172 6.75577 117.303 6.72963 117.425 6.67886C117.546 6.62809 117.657 6.5537 117.75 6.45997C118.549 5.67096 119.627 5.22854 120.75 5.22854C121.873 5.22854 122.951 5.67096 123.75 6.45997C124.54 7.26252 124.983 8.34365 124.983 9.46997C124.983 10.5963 124.54 11.6774 123.75 12.48V12.46Z" fill="#F96955"/>
</svg>
