<svg width="52" height="59" viewBox="0 0 52 59" fill="none" xmlns="http://www.w3.org/2000/svg">
<path d="M44.0231 29.6892C39.6296 37.2991 29.8989 39.9064 22.2891 35.5129C14.6792 31.1193 12.0719 21.3887 16.4654 13.7788C20.859 6.16899 30.5896 3.56167 38.1995 7.95521C45.8093 12.3487 48.4166 22.0794 44.0231 29.6892ZM21.2485 16.5403C18.3802 21.5086 20.0824 27.8614 25.0506 30.7298C30.0188 33.5981 36.3716 31.8959 39.24 26.9277C42.1084 21.9595 40.4062 15.6067 35.438 12.7383C30.4698 9.86992 24.1169 11.5721 21.2485 16.5403Z" fill="#009688"/>
<rect x="22.6202" y="31.9252" width="5.92016" height="19.2405" rx="2.96008" transform="rotate(30 22.6202 31.9252)" fill="#009688"/>
</svg>
